<svg width="640" height="400" viewBox="0 0 640 400" fill="none" xmlns="http://www.w3.org/2000/svg">
  <rect width="640" height="400" rx="22" fill="#F3FAFF"/>
  <rect x="20" y="20" width="600" height="360" rx="16" fill="#FFFFFF" stroke="#DDECF8"/>
  <rect x="44" y="48" width="122" height="14" rx="7" fill="#9BB8D2"/>
  <rect x="44" y="83" width="160" height="88" rx="14" fill="#EAF5FF"/>
  <rect x="220" y="83" width="160" height="88" rx="14" fill="#EAFBF2"/>
  <rect x="396" y="83" width="160" height="88" rx="14" fill="#FFF4E5"/>
  <rect x="44" y="194" width="512" height="156" rx="14" fill="#FBFEFF" stroke="#E8F2FA"/>
  <path d="M68 322C108 255 140 286 174 262C205 240 237 217 276 227C314 237 339 298 376 304C412 311 443 253 482 248C514 244 541 266 556 281" stroke="#006CD1" stroke-width="8" stroke-linecap="round"/>
  <circle cx="174" cy="262" r="6" fill="#006CD1"/>
  <circle cx="276" cy="227" r="6" fill="#006CD1"/>
  <circle cx="376" cy="304" r="6" fill="#006CD1"/>
</svg>
