<svg width="640" height="400" viewBox="0 0 640 400" fill="none" xmlns="http://www.w3.org/2000/svg">
  <rect width="640" height="400" rx="22" fill="#F5FBF8"/>
  <rect x="20" y="20" width="600" height="360" rx="16" fill="#FFFFFF" stroke="#DCEFE5"/>
  <rect x="44" y="48" width="132" height="14" rx="7" fill="#A2C7B5"/>

  <rect x="44" y="86" width="256" height="176" rx="14" fill="#F8FDFB" stroke="#E5F3EC"/>
  <path d="M75 224V166C75 156 83 148 93 148H109C119 148 127 156 127 166V224" fill="#2EB872"/>
  <path d="M140 224V132C140 122 148 114 158 114H174C184 114 192 122 192 132V224" fill="#4FA6FF"/>
  <path d="M205 224V176C205 166 213 158 223 158H239C249 158 257 166 257 176V224" fill="#F5A524"/>

  <rect x="318" y="86" width="258" height="176" rx="14" fill="#F8FDFB" stroke="#E5F3EC"/>
  <circle cx="447" cy="174" r="62" fill="#EAF8F0"/>
  <path d="M447 112C471 112 492 126 502 148L447 174V112Z" fill="#2EB872"/>
  <path d="M502 148C512 170 507 197 489 214L447 174L502 148Z" fill="#006CD1"/>
  <path d="M489 214C472 231 445 236 422 227L447 174L489 214Z" fill="#F5A524"/>
  <path d="M422 227C399 218 384 196 385 171L447 174L422 227Z" fill="#E5484D"/>

  <rect x="44" y="278" width="532" height="72" rx="12" fill="#FBFEFF" stroke="#E5F3EC"/>
  <rect x="72" y="302" width="188" height="10" rx="5" fill="#A2C7B5"/>
  <rect x="374" y="302" width="170" height="10" rx="5" fill="#2EB872"/>
</svg>
