<svg width="640" height="400" viewBox="0 0 640 400" fill="none" xmlns="http://www.w3.org/2000/svg">
  <rect width="640" height="400" rx="22" fill="#F9FCFF"/>
  <rect x="20" y="20" width="600" height="360" rx="16" fill="#FFFFFF" stroke="#DDECF8"/>
  <rect x="44" y="48" width="180" height="14" rx="7" fill="#9BB8D2"/>

  <rect x="44" y="90" width="532" height="48" rx="10" fill="#F4FAFF"/>
  <circle cx="70" cy="114" r="9" fill="#2EB872"/>
  <rect x="88" y="106" width="136" height="12" rx="6" fill="#8CA9C3"/>
  <rect x="496" y="104" width="62" height="16" rx="8" fill="#2EB872"/>

  <rect x="44" y="148" width="532" height="48" rx="10" fill="#FFF9F2"/>
  <circle cx="70" cy="172" r="9" fill="#F5A524"/>
  <rect x="88" y="164" width="136" height="12" rx="6" fill="#8CA9C3"/>
  <rect x="496" y="162" width="62" height="16" rx="8" fill="#F5A524"/>

  <rect x="44" y="206" width="532" height="48" rx="10" fill="#FFF3F3"/>
  <circle cx="70" cy="230" r="9" fill="#E5484D"/>
  <rect x="88" y="222" width="136" height="12" rx="6" fill="#8CA9C3"/>
  <rect x="496" y="220" width="62" height="16" rx="8" fill="#E5484D"/>

  <rect x="44" y="274" width="280" height="76" rx="12" fill="#FBFEFF" stroke="#E6F1FA"/>
  <rect x="342" y="274" width="234" height="76" rx="12" fill="#FBFEFF" stroke="#E6F1FA"/>
</svg>
